<svg xmlns="http://www.w3.org/2000/svg" width="384.594" height="151.173" viewBox="0 0 384.594 151.173">
  <defs>
    <style>
      .cls-1 {
        fill: #1d4a71;
      }

      .cls-2, .cls-3 {
        fill: #fff;
      }

      .cls-3 {
        font-size: 30px;
        font-family: Ubuntu-Bold, Ubuntu;
        font-weight: 700;
      }
    </style>
  </defs>
  <g id="Grupo_26" data-name="Grupo 26" transform="translate(24.488 12.521)">
    <g id="Grupo_22" data-name="Grupo 22">
      <g id="Grupo_20" data-name="Grupo 20">
        <path id="Caminho_823" data-name="Caminho 823" class="cls-1" d="M-.45,0H365.642V130.56s-73.467-26.184-178.867,0-145.6,28.754-187.226,0S-.45,0-.45,0Z" transform="translate(-5.536 -12.521)"/>
        <g id="Grupo_21" data-name="Grupo 21">
          <g id="Grupo_19" data-name="Grupo 19" transform="translate(15 -2)">
            <path id="Caminho_3724" data-name="Caminho 3724" class="cls-2" d="M2273.743,287.3l25.072,60.717s15.752,1.9,24.141-2.059,9.347-10.7,9.414-13.779c.094-4.256-.385-9.864-6.965-14.64-5.311-3.855-10.489-4.122-15.66-10.065a9.144,9.144,0,0,1-2.844-5.866,15.732,15.732,0,0,1,2.427-8.72c2.958-3.514,8.153-5.588,8.153-5.588Z" transform="translate(-2221.244 -263.419)"/>
            <path id="Caminho_3725" data-name="Caminho 3725" class="cls-2" d="M2265.346,298.768l11.994,31.026h-23.648Z" transform="translate(-2221.41 -267.742)"/>
            <path id="Caminho_3726" data-name="Caminho 3726" class="cls-2" d="M2249.385,341.775l-6.536,15.755h43.6l-6.536-15.755Z" transform="translate(-2220.943 -272.481)"/>
            <text id="Orchestrator" class="cls-3" transform="translate(214.5 63)"><tspan x="-93.33" y="0">Orchestrator</tspan></text>
          </g>
        </g>
      </g>
    </g>
  </g>
</svg>
